<?xml version="1.0" encoding="UTF-8" standalone="no"?>
<!-- Created with Inkscape (http://www.inkscape.org/) -->

<svg
   version="1.1"
   id="svg132"
   width="13.257586"
   height="14.781254"
   viewBox="0 0 13.257586 14.781254"
   sodipodi:docname="golden-spike.svg"
   inkscape:version="1.2.2 (b0a8486, 2022-12-01)"
   xmlns:inkscape="http://www.inkscape.org/namespaces/inkscape"
   xmlns:sodipodi="http://sodipodi.sourceforge.net/DTD/sodipodi-0.dtd"
   xmlns="http://www.w3.org/2000/svg"
   xmlns:svg="http://www.w3.org/2000/svg">
  <defs
     id="defs136">
    <clipPath
       clipPathUnits="userSpaceOnUse"
       id="clipPath552">
      <path
         d="M 0,900.438 H 1190.551 V 0 H 0 Z"
         id="path550" />
    </clipPath>
    <clipPath
       clipPathUnits="userSpaceOnUse"
       id="clipPath2288">
      <path
         d="M 0,900.438 H 1190.551 V 0 H 0 Z"
         id="path2286" />
    </clipPath>
    <clipPath
       clipPathUnits="userSpaceOnUse"
       id="clipPath3464">
      <path
         d="m 1118.903,815.773 c 0,0 -0.06,-1.556 -0.71,-1.848 v 0 c -1.73,-0.776 -7.404,-2.055 -7.876,-2.16 v 0 c -0.026,-0.293 -0.327,-1.724 -0.327,-1.724 v 0 h 1.931 7.511 18.892 v 1.236 c -2.218,0.404 -7.158,2.026 -8.547,2.648 v 0 c -0.648,0.292 -0.548,1.848 -0.548,1.848 v 0 26.379 c 0.034,1.568 1.449,8.548 3.853,11.169 v 0 c -5.869,0.863 -8.95,4.274 -14.179,5.167 v 0 z m -8.617,-4.015 c 0,0 0.011,0.002 0.031,0.007 v 0 c 0,0.033 0,0.052 0,0.052 v 0 c -0.01,0 -0.015,-0.019 -0.029,-0.059"
         id="path3462" />
    </clipPath>
    <linearGradient
       x1="0"
       y1="0"
       x2="1"
       y2="0"
       gradientUnits="userSpaceOnUse"
       gradientTransform="matrix(28.333,0,0,-28.333,1109.9902,834.26508)"
       spreadMethod="pad"
       id="linearGradient3474">
      <stop
         style="stop-opacity:1;stop-color:#ffffff"
         offset="0"
         id="stop3470" />
      <stop
         style="stop-opacity:1;stop-color:#463c7a"
         offset="1"
         id="stop3472" />
    </linearGradient>
    <clipPath
       clipPathUnits="userSpaceOnUse"
       id="clipPath3484">
      <path
         d="M 0,900.438 H 1190.551 V 0 H 0 Z"
         id="path3482" />
    </clipPath>
    <clipPath
       clipPathUnits="userSpaceOnUse"
       id="clipPath3496">
      <path
         d="m 1099.955,810.751 c -1.498,-0.923 -3.17,-2.542 -3.699,-3.758 v 0 c 3.764,-1.668 6.855,-3.183 10.148,-4.721 v 0 c 1.513,2.738 1.916,4.993 2.637,6.637 v 0 c 0,0 1.235,2.752 1.473,4.039 v 0 c 0,1.56 0.693,25.332 0.693,25.332 v 0 c 0.228,1.595 0.383,1.292 2.047,4.391 v 0 c -5.366,0.228 -7.338,3.22 -13.299,4.183 v 0 z"
         id="path3494" />
    </clipPath>
    <linearGradient
       x1="0"
       y1="0"
       x2="1"
       y2="0"
       gradientUnits="userSpaceOnUse"
       gradientTransform="matrix(16.997999,0,0,-16.997999,1096.2559,824.56293)"
       spreadMethod="pad"
       id="linearGradient3506">
      <stop
         style="stop-opacity:1;stop-color:#ffffff"
         offset="0"
         id="stop3502" />
      <stop
         style="stop-opacity:1;stop-color:#463c7a"
         offset="1"
         id="stop3504" />
    </linearGradient>
    <clipPath
       clipPathUnits="userSpaceOnUse"
       id="clipPath3516">
      <path
         d="M 0,900.438 H 1190.551 V 0 H 0 Z"
         id="path3514" />
    </clipPath>
    <clipPath
       clipPathUnits="userSpaceOnUse"
       id="clipPath3528">
      <path
         d="m 1100.171,844.976 9.335,-3.607 2.76,-0.834 c 0.277,0.471 0.66,1.122 1.205,2.136 v 0 c -5.367,0.228 -7.34,3.22 -13.3,4.183 v 0 z"
         id="path3526" />
    </clipPath>
    <radialGradient
       fx="0"
       fy="0"
       cx="0"
       cy="0"
       r="1"
       gradientUnits="userSpaceOnUse"
       gradientTransform="matrix(11.703617,0,0,-11.703617,1102.2993,846.15936)"
       spreadMethod="pad"
       id="radialGradient3538">
      <stop
         style="stop-opacity:1;stop-color:#ffffff"
         offset="0"
         id="stop3534" />
      <stop
         style="stop-opacity:1;stop-color:#463c7a"
         offset="1"
         id="stop3536" />
    </radialGradient>
    <clipPath
       clipPathUnits="userSpaceOnUse"
       id="clipPath3548">
      <path
         d="M 0,900.438 H 1190.551 V 0 H 0 Z"
         id="path3546" />
    </clipPath>
    <clipPath
       clipPathUnits="userSpaceOnUse"
       id="clipPath3560">
      <path
         d="m 1138.465,835.197 -0.129,-25.573 v -7.281 h 1.861 c 6.065,2.127 9.094,6.312 8.774,12.685 v 0 c 0,0 0.06,22.131 0.06,23.289 v 0 c 0,1.014 0.409,1.458 2.016,4.392 v 0 c -5.879,0.076 -7.795,3.216 -12.582,4.183 v 0 z"
         id="path3558" />
    </clipPath>
    <linearGradient
       x1="0"
       y1="0"
       x2="1"
       y2="0"
       gradientUnits="userSpaceOnUse"
       gradientTransform="matrix(12.711,0,0,-12.711,1138.3359,824.61737)"
       spreadMethod="pad"
       id="linearGradient3570">
      <stop
         style="stop-opacity:1;stop-color:#ffffff"
         offset="0"
         id="stop3566" />
      <stop
         style="stop-opacity:1;stop-color:#463c7a"
         offset="1"
         id="stop3568" />
    </linearGradient>
    <clipPath
       clipPathUnits="userSpaceOnUse"
       id="clipPath3580">
      <path
         d="M 0,900.438 H 1190.551 V 0 H 0 Z"
         id="path3578" />
    </clipPath>
    <clipPath
       clipPathUnits="userSpaceOnUse"
       id="clipPath3592">
      <path
         d="m 1138.465,845.014 8.84,-3.763 2.677,-0.834 c 0.27,0.471 0.641,1.122 1.17,2.136 v 0 c -6.176,0.7 -6.904,3.375 -12.687,4.339 v 0 z"
         id="path3590" />
    </clipPath>
    <radialGradient
       fx="0"
       fy="0"
       cx="0"
       cy="0"
       r="1"
       gradientUnits="userSpaceOnUse"
       gradientTransform="matrix(11.291825,0,0,-11.291825,1140.4951,846.17963)"
       spreadMethod="pad"
       id="radialGradient3602">
      <stop
         style="stop-opacity:1;stop-color:#ffffff"
         offset="0"
         id="stop3598" />
      <stop
         style="stop-opacity:1;stop-color:#463c7a"
         offset="1"
         id="stop3600" />
    </radialGradient>
    <clipPath
       clipPathUnits="userSpaceOnUse"
       id="clipPath3612">
      <path
         d="M 0,900.438 H 1190.551 V 0 H 0 Z"
         id="path3610" />
    </clipPath>
    <clipPath
       clipPathUnits="userSpaceOnUse"
       id="clipPath3624">
      <path
         d="m 1118.803,856.813 10.715,-4.284 2.759,-0.833 c 0.278,0.471 0.72,1.043 1.393,1.735 v 0 c -5.428,0.575 -8.907,4.297 -14.867,5.26 v 0 z"
         id="path3622" />
    </clipPath>
    <linearGradient
       x1="0"
       y1="0"
       x2="1"
       y2="0"
       gradientUnits="userSpaceOnUse"
       gradientTransform="matrix(-5.0859184,10.906787,10.906787,5.0859184,1128.6433,849.96027)"
       spreadMethod="pad"
       id="linearGradient3634">
      <stop
         style="stop-opacity:1;stop-color:#463c7a"
         offset="0"
         id="stop3630" />
      <stop
         style="stop-opacity:1;stop-color:#ffffff"
         offset="1"
         id="stop3632" />
    </linearGradient>
    <clipPath
       clipPathUnits="userSpaceOnUse"
       id="clipPath3644">
      <path
         d="M 0,900.438 H 1190.551 V 0 H 0 Z"
         id="path3642" />
    </clipPath>
    <clipPath
       clipPathUnits="userSpaceOnUse"
       id="clipPath4434">
      <path
         d="M 0,900.438 H 1190.551 V 0 H 0 Z"
         id="path4432" />
    </clipPath>
    <clipPath
       clipPathUnits="userSpaceOnUse"
       id="clipPath4458">
      <path
         d="M 0,900.438 H 1190.551 V 0 H 0 Z"
         id="path4456" />
    </clipPath>
    <clipPath
       clipPathUnits="userSpaceOnUse"
       id="clipPath4486">
      <path
         d="M 0,900.438 H 1190.551 V 0 H 0 Z"
         id="path4484" />
    </clipPath>
    <clipPath
       clipPathUnits="userSpaceOnUse"
       id="clipPath4604">
      <path
         d="M 0,900.438 H 1190.551 V 0 H 0 Z"
         id="path4602" />
    </clipPath>
  </defs>
  <sodipodi:namedview
     id="namedview134"
     pagecolor="#ffffff"
     bordercolor="#666666"
     borderopacity="1.0"
     inkscape:showpageshadow="2"
     inkscape:pageopacity="0.0"
     inkscape:pagecheckerboard="0"
     inkscape:deskcolor="#d1d1d1"
     showgrid="false"
     inkscape:zoom="6.4306411"
     inkscape:cx="12.595945"
     inkscape:cy="35.610757"
     inkscape:window-width="2180"
     inkscape:window-height="1364"
     inkscape:window-x="94"
     inkscape:window-y="25"
     inkscape:window-maximized="0"
     inkscape:current-layer="layer1">
    <inkscape:page
       x="0"
       y="0"
       id="page138"
       width="13.257586"
       height="14.781254" />
  </sodipodi:namedview>
  <g
     inkscape:groupmode="layer"
     id="layer1"
     inkscape:label="Page 2"
     style="display:inline"
     transform="translate(-1098.8054,-276.03478)">
    <path
       d="m 0,0 0.565,-0.876 -0.608,-0.839 3.702,-3.42 -0.151,-0.992 -1.852,0.433 -4.267,3.262 -1.805,0.164 -1.284,0.675 z"
       style="display:inline;fill:none;stroke:#231f20;stroke-width:0.164;stroke-linecap:butt;stroke-linejoin:miter;stroke-miterlimit:3.864;stroke-dasharray:none;stroke-opacity:1"
       id="path896"
       transform="matrix(1.3333333,0,0,-1.3333333,1107.0026,280.95189)" />
    <path
       d="m 0,0 0.565,-0.876 -0.608,-0.839 3.702,-3.42 -0.151,-0.992 -1.852,0.433 -4.267,3.262 -1.805,0.164 -1.284,0.675 z"
       style="display:inline;fill:#231f20;fill-opacity:1;fill-rule:evenodd;stroke:none"
       id="path892"
       transform="matrix(1.3333333,0,0,-1.3333333,1107.0026,280.95189)" />
    <path
       d="m 0,0 0.541,-1.442 -0.582,-1.382 3.541,-5.633 -0.145,-1.634 -1.771,0.713 -4.081,5.372 -1.727,0.271 -1.227,1.111 z"
       style="display:inline;fill:#fddd1c;fill-opacity:1;fill-rule:evenodd;stroke:none"
       id="path900"
       transform="matrix(1.3333333,0,0,-1.3333333,1106.9114,276.68496)" />
    <path
       d="m 0,0 0.541,-1.442 -0.582,-1.382 3.541,-5.633 -0.145,-1.634 -1.771,0.713 -4.081,5.372 -1.727,0.271 -1.227,1.111 z"
       style="display:inline;fill:none;stroke:#231f20;stroke-width:0.709;stroke-linecap:butt;stroke-linejoin:miter;stroke-miterlimit:3.864;stroke-dasharray:none;stroke-opacity:1"
       id="path904"
       transform="matrix(1.3333333,0,0,-1.3333333,1106.9114,276.68496)" />
  </g>
</svg>
